<svg width="1000" height="262" viewBox="0 0 1000 262" fill="none" xmlns="http://www.w3.org/2000/svg">
<rect width="1000" height="262" fill="white"/>
<path d="M59.1565 141.309L60.8093 138.541C56.884 136.352 56.3055 133.791 56.3055 127.761V112.561C56.3055 107.357 58.0409 105.043 60.9745 105.043C62.9165 105.043 63.7429 106.035 63.7429 110V131.478C63.7429 137.715 66.9658 140.565 73.2463 140.565H87.2947C92.9141 140.565 95.1453 138.252 95.1453 132.717V126.522C95.1453 121.978 93.3686 119.913 88.9474 119.913H83.576C81.3861 119.913 80.2705 118.798 80.2705 116.609V112.891C80.2705 107.646 82.9149 105.043 88.9474 105.043H100.104C105.268 105.043 107.541 106.943 107.541 113.304V134.783C107.541 138.748 109.483 140.565 112.912 140.565H117.044C119.771 140.565 122.416 139.367 122.416 134.783V114.13C122.416 109.628 122.085 106.902 121.341 105.043H125.721C129.688 105.043 131.506 106.861 131.506 112.272V140.565H138.943V112.272C138.943 104.672 135.927 101.739 128.614 101.739H115.02C117.995 104.341 119.11 107.15 119.11 114.13V134.783C119.11 136.311 118.656 137.261 116.92 137.261C115.392 137.261 114.978 136.517 114.978 134.783V113.304C114.978 105.457 111.136 101.739 102.169 101.739H88.9474C81.3861 101.739 76.965 105.457 76.965 112.891V117.022C76.965 121.483 79.1135 123.217 83.1628 123.217H88.5342C90.6415 123.217 91.8398 124.415 91.8398 126.935V133.13C91.8398 135.774 90.6002 137.261 87.7079 137.261H76.5518C72.9983 137.261 71.1803 135.898 71.1803 131.891V110C71.1803 104.961 69.3623 101.739 63.2058 101.739C55.5205 101.739 53 106.737 53 112.561V127.761C53 134.824 53.9503 138.376 59.1565 141.309Z" fill="black"/>
<path d="M77.3996 224L113.347 208.015C134.585 198.557 143.097 192.857 143.097 171.957V155.435H139.791V171.957C139.791 191.452 131.899 196.45 112.107 205.248L110.248 206.074C130.908 191.535 138.138 176.583 138.138 151.304V140.152H130.701V151.304C130.701 192.196 113.182 203.017 76.1601 221.233L77.3996 224Z" fill="black"/>
<path d="M157.869 140.978L159.522 138.211C155.596 136.022 155.018 133.461 155.018 127.43V114.213C155.018 109.009 156.919 106.696 159.728 106.696C161.629 106.696 162.455 107.728 162.455 111.652V134.783C162.455 138.583 164.563 140.565 168.653 140.565H183.941V137.261C179.479 137.261 176.504 135.196 176.504 129.826L176.545 112.065C176.545 106.737 179.479 105.043 183.983 105.043H186.462C190.511 105.043 193.899 106.861 193.899 112.065V131.478C193.899 137.715 196.585 140.565 202.163 140.565H213.691C219.517 140.565 221.955 138.335 221.955 131.478V109.05C221.955 105.952 223.235 105.043 225.632 105.043C228.359 105.043 229.392 106.407 229.392 109.05V140.565H236.829V109.05C236.829 104.548 234.846 101.739 229.475 101.739H225.839C221.5 101.739 218.649 103.804 218.649 109.05V131.478C218.649 135.691 217.41 137.261 213.691 137.261H206.295C203.155 137.261 201.336 135.774 201.336 131.478V112.065C201.336 106.035 198.362 101.739 190.594 101.739H183.983C177.867 101.739 173.24 104.341 173.24 112.065L173.198 129.826C173.198 133.42 174.107 135.857 175.843 137.261H172.372C170.43 137.261 169.893 136.393 169.893 134.783V111.652C169.893 106.613 168.075 103.391 161.918 103.391C154.233 103.391 151.712 108.389 151.712 114.213V127.43C151.712 134.493 152.663 138.046 157.869 140.978Z" fill="black"/>
<path d="M257.015 141.309L258.667 138.541C254.742 136.27 254.164 133.543 254.164 127.348V114.957C254.164 109.257 255.858 105.043 264.08 105.043H266.435C262.923 106.985 261.601 109.917 261.601 115.989V130.652C261.601 137.261 265.402 140.565 270.98 140.565C280.69 140.565 279.409 130.652 281.806 130.652C284.161 130.652 283.087 140.565 292.383 140.565C299.325 140.565 300.854 135.072 300.854 128.174V115.989C300.854 110.743 300.193 106.985 296.309 105.043H300.441C305.358 105.043 307.878 107.811 307.878 111.652V140.565H315.315V111.652C315.315 105.415 312.299 101.739 304.573 101.739H288.045V105.043C294.697 105.043 297.548 107.976 297.548 115.989V128.174C297.548 131.85 297.094 137.261 293.416 137.261C287.632 137.261 288.871 124.043 282.839 124.043C276.765 124.043 278.542 137.261 272.592 137.261C270.361 137.261 269.038 135.443 269.038 130.652V115.989C269.038 108.926 270.691 106.985 273.997 105.043V101.739H264.08C253.998 101.739 250.858 107.274 250.858 114.957V127.348C250.858 134.659 251.808 138.252 257.015 141.309Z" fill="black"/>
<path d="M335.501 141.309L337.153 138.541C333.641 136.807 332.65 133.915 332.65 129V113.304C332.65 107.398 334.385 105.043 337.36 105.043C338.971 105.043 340.087 105.746 340.087 109.174V131.478C340.087 137.715 343.31 140.565 349.59 140.565H373.968V137.261C363.928 137.261 358.267 135.815 358.267 128.091V125.283C377.935 122.804 387.191 130.074 387.191 139.822V140.565H394.628L394.587 139.739C393.967 127.141 380.579 120.12 359.135 122.598C368.638 114.213 384.463 111.652 397.107 111.652C393.14 105.787 386.984 101.739 375.993 101.739C360.87 101.739 354.962 109.422 354.962 119.5V128.174C354.962 132.759 356.036 135.485 359.342 137.261H352.483C348.929 137.261 347.524 135.774 347.524 131.478V109.174C347.524 103.846 344.839 101.739 340.252 101.739H338.269C333.517 101.739 329.344 105.291 329.344 113.304V129C329.344 135.402 330.873 138.748 335.501 141.309ZM358.267 120.078C358.267 111.033 363.515 105.87 373.018 105.87C377.894 105.87 381.736 107.233 384.257 109.05C373.762 110.62 364.506 114.296 358.267 120.078Z" fill="black"/>
<path d="M366.346 90.1739C337.464 90.1739 316.02 83.6065 316.02 70.3891C316.02 63.45 321.928 57.9565 335.811 57.9565C350.645 57.9565 367.875 64.2348 380.725 74.4783C377.419 74.3543 373.535 75.0978 370.147 76.9152L371.635 80.3435C375.188 78.8152 377.957 78.1957 380.973 78.1957C385.642 78.1957 389.443 79.6413 395.021 84.4739L397.748 81.9543C384.733 66.4652 362.999 53 339.034 53C321.68 53 312.218 60.063 312.218 70.3065C312.218 86.7043 336.39 93.4783 366.346 93.4783V90.1739Z" fill="black"/>
<path d="M424.14 141.309L425.793 138.541C422.281 136.807 421.289 133.915 421.289 129V113.304C421.289 107.398 423.025 105.043 426 105.043C427.611 105.043 428.727 105.746 428.727 109.174V131.478C428.727 137.715 431.95 140.565 438.23 140.565H462.608V137.261C452.568 137.261 446.907 135.815 446.907 128.091V125.283C466.575 122.804 475.83 130.074 475.83 139.822V140.565H483.268L483.226 139.739C482.607 127.141 469.219 120.12 447.775 122.598C457.278 114.213 473.103 111.652 485.747 111.652C481.78 105.787 475.624 101.739 464.633 101.739C449.51 101.739 443.602 109.422 443.602 119.5V128.174C443.602 132.759 444.676 135.485 447.981 137.261H441.122C437.569 137.261 436.164 135.774 436.164 131.478V109.174C436.164 103.846 433.479 101.739 428.892 101.739H426.909C422.157 101.739 417.984 105.291 417.984 113.304V129C417.984 135.402 419.513 138.748 424.14 141.309ZM446.907 120.078C446.907 111.033 452.155 105.87 461.658 105.87C466.534 105.87 470.376 107.233 472.897 109.05C462.402 110.62 453.146 114.296 446.907 120.078Z" fill="black"/>
<path d="M454.986 90.1739C426.104 90.1739 404.659 83.6065 404.659 70.3891C404.659 63.45 410.568 57.9565 424.451 57.9565C439.285 57.9565 456.515 64.2348 469.365 74.4783C466.059 74.3543 462.175 75.0978 458.787 76.9152L460.275 80.3435C463.828 78.8152 466.596 78.1957 469.613 78.1957C474.282 78.1957 478.083 79.6413 483.661 84.4739L486.388 81.9543C473.373 66.4652 451.639 53 427.674 53C410.32 53 400.858 60.063 400.858 70.3065C400.858 86.7043 425.03 93.4783 454.986 93.4783V90.1739Z" fill="black"/>
<path d="M519.176 140.565H522.068C525.002 140.565 527.853 139.367 527.853 134.783V110.413C527.853 106.448 529.175 105.043 532.893 105.043H538.182C542.314 105.043 543.554 107.067 543.554 110.413V134.783C543.554 138.748 545.785 140.565 549.752 140.565H553.057C555.784 140.565 558.428 139.367 558.428 134.783V110.413C558.428 106.448 559.751 105.043 563.469 105.043H568.758C572.89 105.043 574.13 107.067 574.13 110.413V140.565H581.567V110.413C581.567 105.87 580.245 101.739 572.477 101.739H563.469C557.933 101.739 555.123 104.507 555.123 110.413V134.783C555.123 136.311 554.668 137.261 552.933 137.261C551.404 137.261 550.991 136.517 550.991 134.783V110.413C550.991 105.87 549.669 101.739 541.901 101.739H532.893C527.357 101.739 524.547 104.507 524.547 110.413V134.783C524.547 136.311 524.092 137.261 522.357 137.261C520.828 137.261 520.415 136.517 520.415 134.783V116.609C520.415 108.72 517.357 104.217 509.052 104.217C498.351 104.217 494.797 111.528 494.797 122.722C494.797 130.322 496.409 137.591 504.962 139.037L505.747 136.187C498.971 134.783 498.103 128.628 498.103 122.639C498.103 111.859 500.995 108.348 506.656 108.348C511.242 108.348 512.978 110.661 512.978 116.196V134.783C512.978 138.748 515.209 140.565 519.176 140.565Z" fill="black"/>
<path d="M521.593 187.57L523.246 184.802C519.321 182.53 518.742 179.804 518.742 173.609V161.217C518.742 155.517 520.437 151.304 528.659 151.304H531.014C527.502 153.246 526.18 156.178 526.18 162.25V176.913C526.18 183.77 529.94 186.826 536.923 186.826H554.69C561.673 186.826 565.433 183.274 565.433 176.5V162.25C565.433 157.004 564.772 153.246 560.888 151.304H565.02C569.937 151.304 572.457 154.072 572.457 157.913V186.826C572.457 209.833 526.18 198.557 526.18 217.35C526.18 221.687 528.659 223.174 532.46 223.174C539.361 223.174 547.459 218.217 566.714 218.217C574.399 218.217 579.357 219.002 582.911 220.076L583.944 217.226C579.605 215.698 574.316 214.913 567.292 214.913C549.69 214.913 538.576 219.87 534.692 219.87C533.287 219.87 532.791 219.209 532.791 217.68C532.791 202.893 579.894 209.915 579.894 186.826V157.913C579.894 151.676 576.878 148 569.151 148H552.624V151.304C559.276 151.304 562.127 154.237 562.127 162.25V176.5C562.127 181.167 559.855 183.522 554.69 183.522H541.055C535.89 183.522 533.617 181.746 533.617 176.5V162.25C533.617 155.187 535.27 153.246 538.576 151.304V148H528.659C518.577 148 515.437 153.535 515.437 161.217V173.609C515.437 180.92 516.387 184.513 521.593 187.57Z" fill="black"/>
<path d="M602.559 138.541C599.171 136.6 598.055 133.915 598.055 129V112.189C598.055 107.398 599.129 105.043 602.393 105.043C604.542 105.043 605.492 106.076 605.492 109.05V131.478C605.492 137.715 608.178 140.565 613.756 140.565H635.242C641.068 140.565 643.506 138.335 643.506 131.478V109.05C643.506 105.952 644.787 105.043 647.183 105.043C649.91 105.043 650.943 106.2 650.943 109.05V140.565H658.38V109.05C658.38 104.548 656.645 101.739 650.447 101.739H647.059C642.555 101.739 640.2 103.804 640.2 109.05V131.478C640.2 135.691 638.961 137.261 635.242 137.261H617.888C614.748 137.261 612.93 135.774 612.93 131.478V109.05C612.93 103.928 611.029 101.739 606.36 101.739H603.716C597.931 101.739 594.749 105.374 594.749 112.189V129C594.749 135.402 596.443 138.665 600.906 141.309L602.559 138.541Z" fill="black"/>
<path d="M628.859 90.1739C599.977 90.1739 578.533 83.6065 578.533 70.3891C578.533 63.45 584.441 57.9565 598.324 57.9565C613.158 57.9565 630.388 64.2348 643.238 74.4783C639.932 74.3543 636.048 75.0978 632.66 76.9152L634.148 80.3435C637.701 78.8152 640.47 78.1957 643.486 78.1957C648.155 78.1957 651.956 79.6413 657.534 84.4739L660.261 81.9543C647.246 66.4652 625.512 53 601.547 53C584.193 53 574.731 60.063 574.731 70.3065C574.731 86.7043 598.903 93.4783 628.859 93.4783V90.1739Z" fill="black"/>
<path d="M684.083 95.9565C694.288 95.9565 703.089 91.6609 703.089 83.1109C703.089 72.9087 690.694 75.0565 690.694 67.6217C690.694 62.2935 697.098 59.4022 703.916 59.4022V56.3043C697.015 56.3043 685.735 59.9804 685.735 69.6043C685.735 79.7239 698.131 77.3283 698.131 85.1348C698.131 90.0913 693.173 92.8587 684.083 92.8587V95.9565ZM719.906 223.67L722.798 221.233C719.328 217.102 717.881 212.559 717.881 205V111.239C717.881 105.704 715.237 101.739 708.378 101.739H703.007C696.891 101.739 692.264 104.135 692.264 111.239L692.222 129.826C692.222 133.42 693.131 135.857 694.867 137.261H691.396C689.454 137.261 688.917 136.393 688.917 134.783V111.652C688.917 106.613 687.099 103.391 680.942 103.391C673.257 103.391 670.737 108.389 670.737 114.213V127.43C670.737 134.493 671.687 138.046 676.893 140.978L678.546 138.211C674.62 136.022 674.042 133.461 674.042 127.43V114.213C674.042 109.009 675.943 106.696 678.752 106.696C680.653 106.696 681.479 107.728 681.479 111.652V134.783C681.479 138.583 683.587 140.565 687.677 140.565H702.965V137.261C698.503 137.261 695.528 135.196 695.528 129.826L695.569 111.239C695.569 106.53 698.503 105.043 703.007 105.043H704.246C707.634 105.043 710.444 106.654 710.444 111.239V205C710.444 212.641 713.832 219.58 719.906 223.67Z" fill="black"/>
<path d="M758.23 140.565H765.667V124.043C769.469 124.043 773.725 124.993 777.237 126.687V133.957C777.237 139.409 779.509 141.391 783.806 141.391C787.814 141.391 790.459 139.657 790.459 135.65C790.459 130.611 786.244 126.563 780.542 123.92V112.891C780.542 106.943 783.476 105.043 787.98 105.043H794.591C799.466 105.043 802.028 107.067 802.028 112.891V140.565H809.466V112.891C809.466 106.365 807.317 101.739 798.723 101.739H787.98C781.864 101.739 777.237 104.548 777.237 112.891V122.639C773.518 121.4 769.469 120.739 765.667 120.739V109.05C765.667 103.928 763.767 101.739 759.098 101.739H756.453C750.669 101.739 747.487 105.374 747.487 112.189V129C747.487 135.402 749.181 138.665 753.644 141.309L755.296 138.541C751.908 136.6 750.793 133.915 750.793 129V112.189C750.793 107.398 751.867 105.043 755.131 105.043C757.28 105.043 758.23 106.076 758.23 109.05V140.565ZM780.542 133.957V128.628C783.021 130.446 784.674 132.759 784.674 135.402C784.674 136.641 784.302 137.261 783.104 137.261C781.451 137.261 780.542 136.146 780.542 133.957Z" fill="black"/>
<path d="M735.939 187.57L737.592 184.802C733.667 182.613 733.088 180.052 733.088 174.022V158.822C733.088 153.617 734.824 151.304 737.757 151.304C739.699 151.304 740.526 152.296 740.526 156.261V177.739C740.526 183.976 743.749 186.826 750.029 186.826H764.078C769.697 186.826 771.928 184.513 771.928 178.978V172.783C771.928 168.239 770.151 166.174 765.73 166.174H760.359C758.169 166.174 757.053 165.059 757.053 162.87V159.152C757.053 153.907 759.698 151.304 765.73 151.304H776.886C782.051 151.304 784.324 153.204 784.324 159.565V176.707C784.324 183.522 785.563 186.826 793.827 186.826H797.546C805.355 186.826 807.049 191.122 807.049 195.748C807.049 197.648 806.76 199.548 805.975 201.241L808.619 202.48C811.801 199.341 813.247 196.285 813.247 193.228C813.247 187.735 808.661 183.522 801.678 183.522H797.546C792.174 183.522 791.761 181.209 791.761 176.707V159.565C791.761 151.717 787.919 148 778.952 148H765.73C758.169 148 753.748 151.717 753.748 159.152V163.283C753.748 167.743 755.896 169.478 759.946 169.478H765.317C767.424 169.478 768.623 170.676 768.623 173.196V179.391C768.623 182.035 767.383 183.522 764.491 183.522H753.335C749.781 183.522 747.963 182.159 747.963 178.152V156.261C747.963 151.222 746.145 148 739.989 148C732.303 148 729.783 152.998 729.783 158.822V174.022C729.783 181.085 730.733 184.637 735.939 187.57Z" fill="black"/>
<path d="M830.457 138.541C827.069 136.6 825.953 133.915 825.953 129V112.189C825.953 107.398 827.028 105.043 830.292 105.043C832.44 105.043 833.391 106.076 833.391 109.05V131.478C833.391 137.715 836.076 140.565 841.655 140.565H863.14C868.966 140.565 871.404 138.335 871.404 131.478V109.05C871.404 105.952 872.685 105.043 875.082 105.043C877.809 105.043 878.842 106.2 878.842 109.05V140.565H886.279V109.05C886.279 104.548 884.544 101.739 878.346 101.739H874.958C870.454 101.739 868.099 103.804 868.099 109.05V131.478C868.099 135.691 866.859 137.261 863.14 137.261H845.786C842.646 137.261 840.828 135.774 840.828 131.478V109.05C840.828 103.928 838.928 101.739 834.258 101.739H831.614C825.829 101.739 822.648 105.374 822.648 112.189V129C822.648 135.402 824.342 138.665 828.804 141.309L830.457 138.541Z" fill="black"/>
<path d="M919.273 223.67L922 221.109C918.653 217.02 917.248 212.517 917.248 205V109.587C917.248 104.341 914.645 101.739 909.646 101.739H906.505C901.712 101.739 899.068 104.465 899.068 109.587V210.37C899.068 216.441 897.333 218.63 892.292 218.63C886.135 218.63 884.358 215.326 877.458 215.326C869.773 215.326 865.063 219.457 858.286 219.457C853.328 219.457 849.485 217.226 849.485 211.526C849.485 205.578 853.824 202.48 858.865 200.043L857.46 196.657C849.403 198.35 842.048 203.43 842.048 211.857C842.048 219.25 847.75 223.587 857.212 223.587C866.467 223.587 869.401 219.457 877.128 219.457C883.119 219.457 885.805 221.935 892.126 221.935C900.06 221.935 902.374 218.052 902.374 210.37V109.587C902.374 106.407 903.613 105.043 906.257 105.043C908.861 105.043 909.811 106.365 909.811 109.587V205C909.811 212.807 913.406 219.787 919.273 223.67Z" fill="black"/>
</svg>
